<?xml version="1.0" encoding="utf-8"?>
<svg viewBox="0 0 500 308.99" xmlns="http://www.w3.org/2000/svg" xmlns:xlink="http://www.w3.org/1999/xlink">
  <defs>
    <pattern id="pattern-0-0" patternTransform="matrix(0.397284, 0, 0, 0.408328, 305.802525, 137.971147)" xlink:href="#pattern-0"/>
    <pattern id="pattern-0" viewBox="0 0 100 100" patternUnits="userSpaceOnUse" preserveAspectRatio="none" width="100" height="100">
      <rect width="100" height="50" style="fill: rgb(230, 208, 186);"/>
      <rect width="100" height="50" y="50" style="fill: rgb(189, 61, 68);"/>
    </pattern>
    <pattern id="pattern-1-0" patternTransform="matrix(0.344967, 0, 0, 0.355129, 81.987007, 41.825869)" xlink:href="#pattern-1"/>
    <pattern id="pattern-1" viewBox="0 0 100 100" patternUnits="userSpaceOnUse" preserveAspectRatio="none" width="100" height="100">
      <rect width="100" height="100" style="fill: rgb(25, 47, 93);"/>
      <path id="path-60" style="fill-rule: evenodd; fill: rgb(230, 208, 186);" d="M 23.831 5.622 L 29.441 22.892 L 47.598 22.892 L 32.909 33.565 L 38.52 50.833 L 23.83 40.16 L 9.14 50.833 L 14.751 33.565 L 0.062 22.892 L 18.22 22.892 Z"/>
      <path id="path-61" style="fill-rule: evenodd; fill: rgb(230, 208, 186);" d="M 75.219 49.315 L 80.83 66.583 L 98.987 66.583 L 84.298 77.256 L 89.909 94.526 L 75.219 83.853 L 60.529 94.526 L 66.14 77.256 L 51.451 66.583 L 69.609 66.583 Z"/>
    </pattern>
  </defs>
  <path id="polyline10" d="M 354 112.626 L 356.023 110.021 L 356.669 106.341 L 358.314 104.976 L 359.009 101.954 L 362.031 98.968 L 361.019 96.58 L 360.008 94.569 L 358.68 92.229 L 358.034 89.207 L 356.986 88.525 L 354 89.573 L 351.624 90.901 L 351.307 92.912 L 350.661 94.569 L 348.967 94.252 L 348.967 91.583 L 350.295 88.525 L 351.624 85.539 L 351.307 81.505 L 350.941 76.826 L 349.32 76.131 L 345.933 74.803 L 343.276 72.792 L 339.925 72.427 L 337.914 74.121 L 336.22 77.789 L 333.88 81.14 L 332.869 80.165 L 330.529 83.516 L 328.189 89.207 L 326.825 94.569 L 328.835 99.614 L 330.164 105.988 L 330.164 110.375 L 327.841 113.801 L 327.178 118.04 L 324.156 119.088 L 322.145 118.405 L 319.476 113.726 L 318.794 109.168 L 319.159 107.681 L 318.465 104.33 L 318.465 98.274 L 319.159 93.241 L 318.794 89.853 L 320.122 84.844 L 321.45 81.822 L 322.827 78.8 L 321.45 80.494 L 318.794 83.516 L 316.771 86.867 L 316.771 85.173 L 318.465 81.14 L 319.805 76.826 L 321.17 73.109 L 322.827 72.792 L 324.802 75.083 L 325.85 72.792 L 329.518 71.744 L 331.906 69.721 L 335.245 69.441 L 339.973 71.5 L 342.788 69.197 L 346.944 69.075 L 348.272 68.064 L 346.262 67.71 L 343.593 67.71 L 341.582 66.053 L 340.254 65.042 L 336.902 64.725 L 336.586 62.702 L 334.563 61.703 L 333.515 61.703 L 329.883 62.336 L 328.189 63.031 L 325.85 64.042 L 323.473 65.407 L 321.17 65.407 L 317.819 65.407 L 315.442 62.702 L 314.114 62.702 L 311.092 63.031 L 310.08 61.703 L 310.763 59.363 L 312.737 58.022 L 312.737 56.012 L 310.446 56.974 L 306.412 60.325 L 303.061 63.713 L 299.71 65.687 L 296.371 66.37 L 293.337 65.687 L 292.337 63.713 L 291.691 64.359 L 289.669 64.725 L 286.975 65.407 L 283.624 65.687 L 282.296 65.895 L 284.636 62.336 L 287.292 60.326 L 293.337 56.012 L 299.71 51.978 L 298.711 51.612 L 294.348 51.978 L 284.635 51.612 L 283.624 50.284 L 280.602 49.273 L 277.616 48.261 L 279.627 46.165 L 272.047 46.165 L 272.413 48.627 L 270.024 47.944 L 267.367 47.262 L 264.016 45.568 L 262.688 42.899 L 261.677 39.548 L 260.677 39.548 L 260.677 42.582 L 259.666 42.899 L 250.953 43.265 L 244.786 43.387 L 233.209 42.899 L 220.535 42.412 L 207.679 41.729 L 195.274 40.889 L 195.286 40.803 L 175.569 38.866 L 159.837 37.22 L 145.762 35.198 L 131.687 32.127 L 119.952 30.152 L 98.175 25.12 L 86.428 22.085 L 78.409 19.392 L 66.991 16.406 L 64.651 17.089 L 64.651 20.757 L 62.958 22.78 L 62.312 24.108 L 62.677 25.802 L 64.335 25.802 L 64.006 28.507 L 63.64 31.164 L 61.995 32.821 L 60.983 34.515 L 58.644 35.198 L 58.644 33.869 L 58.278 32.492 L 58.644 30.798 L 60.301 28.507 L 62.312 26.119 L 61.995 24.754 L 61.629 24.108 L 58.278 23.426 L 58.278 21.768 L 55.621 22.451 L 50.259 17.089 L 47.225 22.085 L 48.882 28.142 L 48.237 32.821 L 49.565 34.149 L 48.237 37.537 L 48.237 40.559 L 50.26 42.339 L 54.452 43.752 L 49.09 42.058 L 46.908 43.91 L 45.251 45.568 L 45.251 49.272 L 41.9 54.318 L 41.546 56.657 L 42.192 58.315 L 40.535 60.045 L 39.523 62.056 L 39.207 65.687 L 37.513 68.393 L 35.855 69.441 L 36.818 71.098 L 33.832 72.426 L 33.199 75.449 L 32.504 77.788 L 33.479 78.471 L 32.139 80.494 L 32.139 83.516 L 33.394 85.892 L 33.272 85.892 L 31.822 86.867 L 32.504 88.878 L 32.504 90.218 L 28.117 97.591 L 26.444 100.301 L 26.444 104.334 L 28.102 106.345 L 28.455 112.682 L 27.809 118.044 L 28.784 122.443 L 30.795 125.794 L 31.161 131.156 L 34.512 131.156 L 34.829 129.828 L 36.522 130.51 L 36.522 131.839 L 35.158 132.521 L 34.829 134.178 L 34.829 135.507 L 33.464 135.19 L 31.806 137.53 L 33.817 139.906 L 35.84 144.585 L 34.829 146.608 L 33.464 147.937 L 35.84 153.981 L 37.168 156.686 L 38.826 161 L 40.52 164.717 L 40.52 168.105 L 39.874 170.761 L 39.508 171.444 L 42.53 172.419 L 44.188 174.43 L 46.211 174.113 L 47.904 174.43 L 49.55 175.77 L 50.244 177.5 L 50.89 179.475 L 53.583 179.792 L 55.923 181.169 L 56.934 182.497 L 58.628 184.885 L 59.957 186.86 L 61.285 188.87 L 63.308 189.199 L 63.625 189.882 L 64.319 191.892 L 64.636 195.244 L 64.965 197.912 L 66.976 199.643 L 68.999 199.923 L 71.009 200.289 L 77.017 201.653 L 81.417 202.299 L 84.402 201.946 L 86.9 200.776 L 86.9 205.127 L 98.965 213.718 L 105.009 217.751 L 112.358 222.748 L 134.452 225.209 L 134.5 225.258 L 141.276 225.941 L 141.715 222.955 L 156.277 224.039 L 156.277 224.027 L 159.945 226.099 L 163.979 230.498 L 164.625 232.509 L 169.706 236.189 L 169.987 238.882 L 173.057 243.245 L 174.02 247.961 L 176.396 250.618 L 181.076 254.298 L 184.427 256.309 L 186.45 255.346 L 188.095 253.969 L 188.79 249.289 L 192.129 247.961 L 196.808 249.289 L 201.488 249.972 L 203.864 252.275 L 206.85 254.651 L 209.555 256.991 L 209.555 259.66 L 211.578 262.036 L 211.578 265.022 L 213.272 267.033 L 214.917 268.775 L 217.257 271.066 L 218.268 274.783 L 220.925 279.828 L 222.948 284.861 L 227.347 288.895 L 230.333 290.235 L 236.06 291.198 L 241.374 292.733 L 240.74 291.198 L 241.057 288.541 L 240.374 284.508 L 239.399 282.485 L 240.74 279.828 L 240.045 277.805 L 237.389 277.805 L 237.705 276.16 L 239.68 275.1 L 240.74 272.76 L 240.74 271.066 L 242.751 270.749 L 243.713 269.421 L 243.396 268.093 L 245.407 267.033 L 249.441 266.399 L 249.77 265.022 L 248.393 263.693 L 247.747 262.036 L 250.087 262.365 L 253.474 262.719 L 257.471 260.708 L 261.505 258.331 L 264.174 254.98 L 264.856 253.323 L 263.845 251.312 L 266.185 249.972 L 266.185 251.629 L 268.195 253.323 L 271.181 251.312 L 273.886 250.788 L 277.603 249.289 L 281.271 251.312 L 286.597 251.995 L 291.313 251.312 L 295.992 250.947 L 295.992 252.957 L 299.343 254.298 L 303.377 256.991 L 304.376 254.651 L 307.362 254.98 L 308.739 253.969 L 310.433 253.652 L 315.112 254.98 L 317.123 257.357 L 318.451 256.309 L 319.146 254.298 L 317.806 253.969 L 315.795 251.995 L 313.419 250.618 L 314.747 248.607 L 316.441 247.595 L 316.441 245.256 L 314.467 245.938 L 312.724 248.924 L 312.078 247.595 L 312.724 245.256 L 311.396 244.61 L 309.75 245.585 L 306.034 244.61 L 310.433 243.245 L 314.467 243.927 L 312.444 242.026 L 315.588 240.576 L 320.145 239.211 L 324.143 239.735 L 326.848 239.894 L 327.53 236.018 L 329.261 236.945 L 329.261 239.613 L 332.539 239.37 L 332.734 241.222 L 335.512 241.222 L 339.546 238.882 L 343.263 239.211 L 346.931 241.551 L 350.928 243.245 L 355.327 243.562 L 358.666 243.927 L 360.689 241.917 L 362.017 239.894 L 366.051 241.551 L 369.719 243.245 L 372.741 244.89 L 376.421 247.279 L 380.126 249.618 L 380.772 252.957 L 380.455 256.991 L 380.772 262.365 L 381.783 260.708 L 383.112 260.026 L 383.477 263.048 L 382.783 265.022 L 382.429 267.033 L 384.123 269.055 L 386.816 271.432 L 389.156 270.749 L 389.156 273.772 L 390.85 275.794 L 390.85 278.171 L 394.201 280.145 L 397.187 282.85 L 399.21 284.861 L 400.209 286.884 L 401.866 288.212 L 404.243 288.212 L 407.594 285.836 L 407.911 284.179 L 408.557 282.168 L 409.605 277.805 L 409.251 269.421 L 406.912 266.07 L 402.914 260.026 L 400.904 254.98 L 395.53 246.267 L 393.519 241.551 L 390.168 235.495 L 388.766 230.803 L 388.839 230.815 L 387.791 228.122 L 388.474 221.419 L 389.802 220.737 L 390.497 219.409 L 388.474 219.08 L 394.884 214.4 L 394.969 214.449 L 393.763 211.743 L 392.507 210.013 L 393.519 210.013 L 396.505 209.318 L 396.505 207.308 L 398.199 207.027 L 400.538 205.979 L 401.867 202.628 L 404.572 201.653 L 404.572 199.643 L 406.266 195.243 L 409.873 192.867 L 409.934 192.904 L 410.945 191.892 L 413.639 191.21 L 413.639 188.87 L 414.979 185.165 L 417.965 181.168 L 423.327 180.157 L 426.349 177.78 L 425.337 176.123 L 421.669 177.135 L 423.327 175.124 L 423.692 173.101 L 419.975 172.418 L 421.998 171.773 L 425.703 172.784 L 427.36 170.396 L 429.054 167.739 L 431.345 168.75 L 430.699 173.466 L 432.04 171.443 L 432.393 168.75 L 428.689 163.705 L 426.349 164.071 L 424.338 166.081 L 421.304 166.727 L 420.987 165.033 L 423.327 165.399 L 426.349 163.023 L 427.677 161.682 L 427.36 158.989 L 425.983 159.513 L 424.009 159.513 L 427.36 158.989 L 425.703 156.32 L 422.998 155.309 L 418.964 154.309 L 415.625 152.287 L 419.293 152.287 L 420.987 151.324 L 418.964 149.301 L 414.979 145.267 L 411.993 142.574 L 419.976 147.936 L 420.621 147.29 L 419.976 145.596 L 415.942 142.208 L 419.659 143.573 L 417.27 141.234 L 417.27 138.211 L 416.624 134.178 L 416.307 130.51 L 417.27 130.51 L 417.965 134.543 L 418.964 137.2 L 418.647 140.551 L 420.621 139.905 L 421.998 141.234 L 424.338 143.939 L 424.009 146.608 L 423.692 151.97 L 425.021 150.641 L 426.678 146.925 L 427.031 142.891 L 429.054 138.857 L 429.054 137.042 L 431.638 134.263 L 428.847 134.543 L 425.301 132.082 L 424.521 128.84 L 429.054 129.462 L 432.393 124.465 L 433.734 120.432 L 433.734 115.387 L 431.345 114.058 L 431.394 113.449 L 433.039 108.648 L 434.416 106.344 L 439.412 102.311 L 442.447 101.628 L 445.432 100.983 L 448.771 100.983 L 449.819 99.618 L 450.149 95.584 L 448.771 94.414 L 446.761 93.72 L 445.786 93.403 L 448.65 94.292 L 450.148 95.584 L 453.487 96.949 L 454.828 95.584 L 457.484 95.584 L 460.555 94.256 L 460.555 92.562 L 458.167 89.857 L 459.507 91.587 L 458.862 93.61 L 456.156 93.244 L 455.181 91.867 L 452.805 89.211 L 451.477 85.177 L 450.794 85.019 L 450.745 81.338 L 449.892 79.133 L 450.794 81.143 L 451.842 75.452 L 454.499 71.419 L 458.532 67.068 L 460.836 64.728 L 460.555 61.012 L 463.212 61.377 L 463.894 59.367 L 464.54 61.012 L 468.903 56.978 L 471.925 56.978 L 473.582 55.65 L 472.607 54.322 L 470.597 53.639 L 467.891 50.288 L 466.88 47.948 L 464.187 49.276 L 462.846 47.583 L 462.529 44.231 L 462.2 39.552 L 460.555 33.191 L 457.85 29.474 L 455.474 30.156 L 452.122 32.496 L 449.137 29.839 L 446.48 31.168 L 446.76 38.552 L 444.092 40.892 L 444.786 47.948 L 444.092 53.31 L 442.763 57.673 L 442.081 58.842 L 438.047 60.049 L 439.412 62.706 L 438.73 68.238 L 439.217 64.119 L 425.703 66.581 L 419.975 67.068 L 414.979 68.067 L 411.628 69.725 L 406.266 77.11 L 406.583 82.191 L 407.228 85.542 L 404.572 86.505 L 402.549 88.528 L 398.881 89.576 L 393.153 89.856 L 386.134 91.587 L 386.134 95.255 L 388.157 97.595 L 386.134 99.618 L 383.477 102.64 L 383.477 102.798 L 377.263 107.368 L 377.226 106.99 L 375.081 108.648 L 368.354 113.047 L 365.685 114.704 L 362.7 116.398 L 361.652 115.058 L 359.641 115.058 L 355.486 115.013 Z M 430.713 109.132 L 431.676 109.546 L 431.651 109.948 Z M 424.023 127.252 L 424.352 127.959 L 424.352 128.239 Z M 391.23 212.544 L 394.654 214.274 L 391.12 212.568 Z" style="fill: url(#pattern-0-0);"/>
  <path id="path5040" d="M 66.985 16.401 L 64.645 17.084 L 64.645 20.752 L 62.951 22.775 L 62.305 24.103 L 62.671 25.797 L 64.328 25.797 L 63.999 28.502 L 63.634 31.159 L 61.989 32.816 L 60.977 34.51 L 58.637 35.193 L 58.637 33.864 L 58.272 32.487 L 58.637 30.794 L 60.295 28.502 L 62.306 26.114 L 61.989 24.749 L 61.623 24.103 L 58.272 23.421 L 58.272 21.763 L 55.615 22.446 L 50.253 17.084 L 47.219 22.08 L 48.876 28.137 L 48.23 32.816 L 49.559 34.145 L 48.23 37.532 L 48.23 40.555 L 50.253 42.334 L 54.445 43.747 L 49.083 42.053 L 46.902 43.906 L 45.245 45.563 L 45.245 49.268 L 41.894 54.313 L 41.54 56.653 L 42.186 58.31 L 40.529 60.04 L 39.517 62.051 L 39.2 65.683 L 37.507 68.388 L 35.849 69.436 L 36.812 71.093 L 33.826 72.422 L 33.193 75.444 L 32.498 77.784 L 33.473 78.466 L 32.132 80.489 L 32.132 83.511 L 33.388 85.887 L 33.266 85.887 L 31.816 86.862 L 32.498 88.873 L 32.498 90.213 L 28.111 97.586 L 26.454 100.292 L 26.454 104.325 L 28.111 106.336 L 28.464 112.673 L 27.818 118.035 L 28.793 122.434 L 30.804 125.785 L 31.17 131.147 L 34.521 131.147 L 34.838 129.819 L 36.532 130.501 L 36.532 131.829 L 35.167 132.512 L 34.838 134.169 L 34.838 135.497 L 33.473 135.181 L 31.815 137.52 L 33.826 139.897 L 35.849 144.576 L 34.838 146.599 L 33.473 147.927 L 35.849 153.972 L 37.177 156.677 L 38.835 160.991 L 40.529 164.708 L 40.529 166.56 L 237.52 166.56 L 237.52 43.079 L 233.206 42.896 L 220.532 42.408 L 207.676 41.726 L 195.271 40.885 L 195.283 40.8 L 175.566 38.862 L 159.834 37.217 L 145.759 35.194 L 131.684 32.123 L 119.948 30.149 L 114.27 28.837 L 98.172 25.116 L 86.424 22.082 L 78.406 19.388 Z" style="fill: url(#pattern-1-0);"/>
</svg>